<!-- icon666.com - MILLIONS vector ICONS FREE --><svg id="Layer_1" enable-background="new 0 0 512 512" viewBox="0 0 512 512" xmlns="http://www.w3.org/2000/svg"><g clip-rule="evenodd" fill-rule="evenodd"><g><path d="m180.571 352.69h150.857v83.993h-150.857z" fill="#a79ba7" data-darkreader-inline-fill="" style="--darkreader-inline-fill: #4d5457;"></path><path d="m321.428 352.69h10v83.993h-10z" fill="#837683" data-darkreader-inline-fill="" style="--darkreader-inline-fill: #5e6669;"></path><path d="m99.935 474.286h312.13c3.855 0 7-3.144 7-7v-18.143c0-13.828-14.16-25.142-31.468-25.142h-263.194c-17.308 0-31.468 11.314-31.468 25.142v18.143c0 3.855 3.145 7 7 7z" fill="#eceff1" data-darkreader-inline-fill="" style="--darkreader-inline-fill: #212425; fill: rgb(255, 255, 255);"></path><path d="m99.935 474.286h312.13c3.855 0 7-3.144 7-7v-18.143c0-7.114-3.748-13.563-9.744-18.148 2.218 3.438 3.473 7.33 3.473 11.446v18.143c0 3.855-3.145 7-7 7h-312.131c-.244 0-.485-.013-.723-.037.139 3.735 3.227 6.739 6.995 6.739z" fill="#d1d1d6" data-darkreader-inline-fill="" style="--darkreader-inline-fill: #313537;"></path><path d="m52.9 37.714h406.199c20.295 0 36.9 16.605 36.9 36.901v253.858c0 20.295-16.606 36.901-36.9 36.901h-406.199c-20.295 0-36.9-16.605-36.9-36.901v-253.858c0-20.296 16.605-36.901 36.9-36.901z" fill="#eceff1" data-darkreader-inline-fill="" style="--darkreader-inline-fill: #212425; fill: rgb(255, 255, 255);"></path><path d="m479.683 44.031c9.825 6.648 16.317 17.895 16.317 30.584v253.858c0 20.295-16.606 36.901-36.9 36.901h-406.2c-12.689 0-23.935-6.491-30.583-16.317 5.89 3.984 12.977 6.316 20.583 6.316h406.199c20.295 0 36.901-16.605 36.901-36.9v-253.858c0-7.606-2.333-14.694-6.317-20.584z" fill="#d1d1d6" data-darkreader-inline-fill="" style="--darkreader-inline-fill: #313537;"></path><path d="m51.975 68.571h408.05c2.815 0 5.118 2.304 5.118 5.118v242.866h-418.286v-242.866c0-2.814 2.303-5.118 5.118-5.118z" fill="#d8ecfe" data-darkreader-inline-fill="" style="--darkreader-inline-fill: #232628;"></path><path d="m446.041 68.571h13.984c2.815 0 5.118 2.304 5.118 5.118v242.866h-19.102z" fill="#c4e2ff" data-darkreader-inline-fill="" style="--darkreader-inline-fill: #292c2e;"></path></g><g><path d="m486 172.462h-152.778c-5.5 0-10 4.5-10 10v281.824c0 5.5 4.5 10 10 10h152.778c5.5 0 10-4.5 10-10v-281.824c0-5.5-4.5-10-10-10z" fill="#8192a5" data-darkreader-inline-fill="" style="--darkreader-inline-fill: #4b5969;"></path><path d="m480.067 172.464-.001 269.955c0 8.763-7.169 15.932-15.932 15.932h-140.91v.001c0 8.763 7.169 15.932 15.932 15.932h140.911c8.763 0 15.932-7.169 15.932-15.932v-269.956c0-8.763-7.169-15.932-15.932-15.932z" fill="#65788e" data-darkreader-inline-fill="" style="--darkreader-inline-fill: #516072;"></path><circle cx="409.611" cy="415.001" fill="#eceff1" r="15.645" data-darkreader-inline-fill="" style="--darkreader-inline-fill: #dedbd6; fill: rgb(255, 255, 255);"></circle><path d="m409.611 399.356c8.64 0 15.645 7.004 15.645 15.645s-7.004 15.645-15.645 15.645c-.495 0-.984-.024-1.467-.069 7.952-.74 14.178-7.43 14.178-15.576s-6.226-14.836-14.178-15.576c.483-.045.972-.069 1.467-.069z" fill="#d1d1d6" data-darkreader-inline-fill="" style="--darkreader-inline-fill: #cdc8c2;"></path><circle cx="409.611" cy="347.883" fill="#eceff1" r="15.645" data-darkreader-inline-fill="" style="--darkreader-inline-fill: #dedbd6; fill: rgb(255, 255, 255);"></circle><path d="m409.611 332.238c8.64 0 15.645 7.004 15.645 15.645s-7.004 15.645-15.645 15.645c-.495 0-.984-.024-1.467-.069 7.952-.74 14.178-7.43 14.178-15.576s-6.226-14.837-14.178-15.576c.483-.045.972-.069 1.467-.069z" fill="#d1d1d6" data-darkreader-inline-fill="" style="--darkreader-inline-fill: #cdc8c2;"></path><path d="m452.329 231.432c4.418 0 8 3.582 8 8s-3.582 8-8 8h-85.435c-4.418 0-8-3.582-8-8s3.582-8 8-8zm0 45.182c4.418 0 8 3.582 8 8s-3.582 8-8 8h-85.435c-4.418 0-8-3.582-8-8s3.582-8 8-8z" fill="#ffe177" data-darkreader-inline-fill="" style="--darkreader-inline-fill: #634e00;"></path></g></g></svg>